{
  "accessors": [
    {
      "bufferView": 2,
      "componentType": 5126,
      "count": 5056,
      "max": [
        0.6652423739433289,
        0.479729026556015,
        0.3786271810531616
      ],
      "min": [
        -0.6652423739433289,
        -0.23011654615402222,
        -0.3786271810531616
      ],
      "type": "VEC3"
    },
    {
      "bufferView": 2,
      "byteOffset": 60672,
      "componentType": 5126,
      "count": 5056,
      "max": [
        1.0,
        1.0,
        1.0
      ],
      "min": [
        -1.0,
        -1.0,
        -1.0
      ],
      "type": "VEC3"
    },
    {
      "bufferView": 1,
      "componentType": 5126,
      "count": 5056,
      "max": [
        0.8746548295021057,
        1.0000728368759155
      ],
      "min": [
        0.125,
        0.0
      ],
      "type": "VEC2"
    },
    {
      "bufferView": 0,
      "componentType": 5125,
      "count": 8025,
      "type": "SCALAR"
    },
    {
      "bufferView": 2,
      "byteOffset": 121344,
      "componentType": 5126,
      "count": 1575,
      "max": [
        0.5675780177116394,
        0.4240935444831848,
        0.6495975255966187
      ],
      "min": [
        -0.5675780177116394,
        0.04902200773358345,
        -0.6495975255966187
      ],
      "type": "VEC3"
    },
    {
      "bufferView": 2,
      "byteOffset": 140244,
      "componentType": 5126,
      "count": 1575,
      "max": [
        0.9999564290046692,
        1.0,
        1.0
      ],
      "min": [
        -0.9999564290046692,
        -1.0,
        -1.0
      ],
      "type": "VEC3"
    },
    {
      "bufferView": 1,
      "byteOffset": 40448,
      "componentType": 5126,
      "count": 1575,
      "max": [
        0.6314897537231445,
        0.9986792802810669
      ],
      "min": [
        0.4250580072402954,
        0.47170475125312805
      ],
      "type": "VEC2"
    },
    {
      "bufferView": 0,
      "byteOffset": 32100,
      "componentType": 5125,
      "count": 2448,
      "type": "SCALAR"
    }
  ],
  "asset": {
    "extras": {
      "author": "tkkjee ​🥀 (https://sketchfab.com/tkkjee)",
      "license": "CC-BY-4.0 (http://creativecommons.org/licenses/by/4.0/)",
      "source": "https://sketchfab.com/3d-models/house-icon-home-fdb624da9281435d845807fb1bd4ee80",
      "title": "House Icon (home)"
    },
    "generator": "Sketchfab-13.23.0",
    "version": "2.0"
  },
  "bufferViews": [
    {
      "buffer": 0,
      "byteLength": 41892,
      "name": "floatBufferViews",
      "target": 34963
    },
    {
      "buffer": 0,
      "byteLength": 53048,
      "byteOffset": 41892,
      "byteStride": 8,
      "name": "floatBufferViews",
      "target": 34962
    },
    {
      "buffer": 0,
      "byteLength": 159144,
      "byteOffset": 94940,
      "byteStride": 12,
      "name": "floatBufferViews",
      "target": 34962
    }
  ],
  "buffers": [
    {
      "byteLength": 254084,
      "uri": "scene.bin"
    }
  ],
  "extensionsUsed": [
    "KHR_materials_clearcoat"
  ],
  "materials": [
    {
      "doubleSided": true,
      "extensions": {
        "KHR_materials_clearcoat": {
          "clearcoatFactor": 1.0,
          "clearcoatRoughnessFactor": 0.05333349587351123
        }
      },
      "name": "roof",
      "pbrMetallicRoughness": {
        "baseColorFactor": [
          1.0,
          0.12053537832493154,
          0.008959033215757944,
          1.0
        ],
        "metallicFactor": 0.0,
        "roughnessFactor": 0.6628591629993539
      }
    }
  ],
  "meshes": [
    {
      "name": "Object_0",
      "primitives": [
        {
          "attributes": {
            "NORMAL": 1,
            "POSITION": 0,
            "TEXCOORD_0": 2
          },
          "indices": 3,
          "material": 0,
          "mode": 4
        }
      ]
    },
    {
      "name": "Object_1",
      "primitives": [
        {
          "attributes": {
            "NORMAL": 5,
            "POSITION": 4,
            "TEXCOORD_0": 6
          },
          "indices": 7,
          "material": 0,
          "mode": 4
        }
      ]
    }
  ],
  "nodes": [
    {
      "children": [
        1
      ],
      "matrix": [
        1.0,
        0.0,
        0.0,
        0.0,
        0.0,
        2.220446049250313e-16,
        -1.0,
        0.0,
        0.0,
        1.0,
        2.220446049250313e-16,
        0.0,
        0.0,
        0.0,
        0.0,
        1.0
      ],
      "name": "Sketchfab_model"
    },
    {
      "children": [
        2
      ],
      "name": "root"
    },
    {
      "children": [
        3
      ],
      "matrix": [
        1.0,
        0.0,
        0.0,
        0.0,
        0.0,
        2.220446049250313e-16,
        1.0,
        0.0,
        0.0,
        -1.0,
        2.220446049250313e-16,
        0.0,
        0.0,
        0.0,
        0.0,
        1.0
      ],
      "name": "GLTF_SceneRootNode"
    },
    {
      "children": [
        4,
        5
      ],
      "matrix": [
        0.9414091110229492,
        0.0,
        0.0,
        0.0,
        0.0,
        0.9414091110229492,
        0.0,
        0.0,
        0.0,
        0.0,
        0.9414091110229492,
        0.0,
        0.0,
        0.0,
        0.0,
        1.0
      ],
      "name": "Cube.002_1"
    },
    {
      "mesh": 0,
      "name": "Object_4"
    },
    {
      "children": [
        6
      ],
      "matrix": [
        1.5230450630187988,
        0.0,
        0.0,
        0.0,
        0.0,
        1.5230448246002197,
        0.0,
        0.0,
        0.0,
        0.0,
        0.7883062958717346,
        0.0,
        0.0,
        -0.05957602337002754,
        0.0,
        1.0
      ],
      "name": "Cube.003_0"
    },
    {
      "mesh": 1,
      "name": "Object_6"
    }
  ],
  "scene": 0,
  "scenes": [
    {
      "name": "Sketchfab_Scene",
      "nodes": [
        0
      ]
    }
  ]
}
